# xmcd
#
# Track frame offsets: 
#        150
#        19947
#        36942
#        54457
#        72975
#        87327
#        102952
#        117440
#        138417
#        157877
#        176065
#        193687
#        216797
#        237475
#
# Disc length: 3472 seconds
#
# Revision: 4
# Processed by: cddbd v1.5.2PL0 Copyright (c) Steve Scherf et al.
# Submitted via: ExactAudioCopy v1.0b3
#
DISCID=c80d8e0e
DTITLE=Peter Malick Group - Chance and Circumstance
DYEAR=2003
DGENRE=Blues
TTITLE0=Immigrant (With Jess Klein)
TTITLE1=Chance and Circumstance (With Kristen Proffit)
TTITLE2=Opium (With Antje Duvekot)
TTITLE3=Strange Transmissions (With Norah Jones)
TTITLE4=Things You Don't Have To Do (With Norah Jones)
TTITLE5=Lighten Me (With Mercy Malick)
TTITLE6=What Would I Do Without You (With Mercy Malick)
TTITLE7=Midsize City Girl (With Jess Klein)
TTITLE8=Deceptively Yours (With Norah Jones)
TTITLE9=Into The City (With Antje Duvekot)
TTITLE10=Whatever That Means (With Kristen Proffit)
TTITLE11=Heart Of Mine (With Norah Jones)
TTITLE12=All Your Love (With Norah Jones)
TTITLE13=NewYork City (With Norah Jones)
EXTD=
EXTT0=
EXTT1=
EXTT2=
EXTT3=
EXTT4=
EXTT5=
EXTT6=
EXTT7=
EXTT8=
EXTT9=
EXTT10=
EXTT11=
EXTT12=
EXTT13=
PLAYORDER=
